<?xml version="1.0" encoding="utf-8"?><svg viewBox="0 0 198 53" xmlns="http://www.w3.org/2000/svg" xmlns:xlink="http://www.w3.org/1999/xlink"><style>:root>svg{display:none}:root>svg:target{display:block}</style><svg fill="none" viewBox="0 0 198 30" id="Arrow2" xmlns="http://www.w3.org/2000/svg"><path d="M197.211 16.414a2 2 0 000-2.828L184.483.858a2 2 0 00-2.829 2.828L192.968 15l-11.314 11.314a2 2 0 102.829 2.828l12.728-12.728zM0 17h195.796v-4H0v4z" fill="#fff"/></svg><svg fill="none" viewBox="0 0 36 22" id="be" xmlns="http://www.w3.org/2000/svg"><path d="M15.668 9.149c.622-.934.933-2.023.933-3.267 0-3.267-2.8-5.757-5.912-5.757H1.666c-.467 0-.778.311-.778.778v19.759c0 .466.31.778.778.778h9.957c3.734 0 6.845-2.956 6.845-6.69 0-2.334-1.089-4.357-2.8-5.601zM4.778 4.17h5.911c1.09 0 1.867.934 1.867 1.867 0 1.09-.933 1.867-1.867 1.867H4.777V4.17zm7 13.38h-7v-5.6h7c1.556 0 2.8 1.244 2.8 2.8 0 1.555-1.244 2.8-2.8 2.8zM35.737 13.35c0-4.668-3.578-8.402-8.09-8.402-4.511 0-8.09 3.734-8.09 8.402 0 4.667 3.579 8.4 8.09 8.4 2.645 0 5.135-1.4 6.69-3.733l.467-.934c.156-.155 0-.466-.311-.466h-3.89c-.155 0-.155 0-.31.155a3.643 3.643 0 01-2.646 1.09c-2.022 0-3.578-1.4-4.045-3.423H34.96c.466 0 .777-.312.777-.778v-.311zm-8.09-4.357c1.4 0 2.645.778 3.423 2.023h-6.845c.622-1.245 2.022-2.023 3.422-2.023zM30.915 4.015h-7.157c-.311 0-.622-.311-.622-.623v-1.71c0-.312.31-.623.622-.623h7.157c.31 0 .622.31.622.622v1.867c0 .156-.156.467-.622.467z" fill="#fff"/></svg><svg fill="none" viewBox="0 0 28 53" id="facebook" xmlns="http://www.w3.org/2000/svg"><path d="M26.15 29.895l1.442-9.395h-9.014v-6.094c0-2.57 1.26-5.078 5.297-5.078h4.098V1.33s-3.72-.635-7.275-.635c-7.424 0-12.276 4.5-12.276 12.645v7.16H.17v9.395h8.252v22.71c3.365.527 6.791.527 10.156 0v-22.71h7.573z" fill="#fff"/></svg><svg fill="none" viewBox="0 0 41 41" id="instagram" xmlns="http://www.w3.org/2000/svg"><path d="M20.512 3.847c5.43 0 6.073.024 8.21.12 1.984.087 3.056.42 3.77.698.945.365 1.628.81 2.334 1.517.715.714 1.151 1.389 1.517 2.334.278.714.611 1.794.698 3.77.096 2.145.12 2.787.12 8.21 0 5.43-.024 6.074-.12 8.21-.087 1.984-.42 3.056-.698 3.77a6.284 6.284 0 01-1.517 2.334c-.714.715-1.389 1.152-2.334 1.517-.714.278-1.794.611-3.77.699-2.145.095-2.788.119-8.21.119-5.43 0-6.074-.024-8.21-.12-1.984-.087-3.056-.42-3.77-.698a6.285 6.285 0 01-2.335-1.517c-.714-.714-1.15-1.389-1.516-2.334-.278-.714-.611-1.794-.699-3.77-.095-2.144-.119-2.787-.119-8.21 0-5.43.024-6.073.12-8.21.087-1.984.42-3.056.698-3.77a6.285 6.285 0 011.516-2.334c.715-.715 1.39-1.152 2.335-1.517.714-.278 1.794-.611 3.77-.698 2.136-.096 2.78-.12 8.21-.12zm0-3.66c-5.518 0-6.209.024-8.376.12-2.16.095-3.644.444-4.93.944-1.342.524-2.477 1.215-3.605 2.35-1.135 1.128-1.826 2.263-2.35 3.597-.5 1.294-.85 2.77-.944 4.93-.096 2.175-.12 2.866-.12 8.384 0 5.518.024 6.208.12 8.376.095 2.16.444 3.644.944 4.93.524 1.342 1.215 2.477 2.35 3.604a9.934 9.934 0 003.597 2.343c1.294.5 2.77.849 4.93.944 2.168.096 2.858.12 8.376.12 5.518 0 6.208-.024 8.376-.12 2.16-.095 3.644-.444 4.93-.945a9.934 9.934 0 003.597-2.342 9.934 9.934 0 002.342-3.596c.5-1.294.85-2.77.944-4.93.096-2.168.12-2.858.12-8.376 0-5.518-.024-6.209-.12-8.376-.095-2.16-.444-3.644-.944-4.93A9.519 9.519 0 0037.422 3.6a9.935 9.935 0 00-3.596-2.342c-1.294-.5-2.77-.85-4.93-.944C26.72.21 26.03.187 20.512.187z" fill="#fff"/></svg><svg fill="none" viewBox="0 0 25 24" id="linkedin" xmlns="http://www.w3.org/2000/svg"><path d="M24.5 14.71v8.962h-5.247v-8.416c0-2.077-.765-3.498-2.623-3.498-1.42 0-2.295.984-2.623 1.858-.11.328-.219.766-.219 1.312v8.744H8.541s.11-14.21 0-15.63h5.247v2.186c.656-1.093 1.968-2.623 4.7-2.623 3.389 0 6.012 2.295 6.012 7.104zM3.076.5C1.327.5.125 1.702.125 3.232c0 1.53 1.093 2.733 2.842 2.733 1.858 0 2.951-1.202 2.951-2.733C6.028 1.592 4.934.5 3.076.5zM.453 23.672H5.7V8.042H.453v15.63z" fill="#fff"/></svg><svg fill="none" viewBox="0 0 36 30" id="telegram" xmlns="http://www.w3.org/2000/svg"><path fill-rule="evenodd" clip-rule="evenodd" d="M2.712 13.157c9.474-4.127 15.792-6.849 18.953-8.164C30.69 1.24 32.565.587 33.788.566c.27-.005.87.062 1.26.378.328.266.419.627.462.88.043.253.097.829.055 1.28-.49 5.138-2.606 17.61-3.683 23.365-.455 2.435-1.352 3.252-2.22 3.332-1.888.174-3.321-1.247-5.15-2.446-2.86-1.875-4.476-3.042-7.252-4.872-3.209-2.114-1.129-3.276.7-5.176.479-.497 8.794-8.06 8.955-8.747.02-.085.039-.405-.151-.574-.19-.17-.47-.111-.673-.065-.287.065-4.857 3.085-13.709 9.06-1.297.891-2.472 1.325-3.524 1.302-1.16-.025-3.393-.656-5.052-1.195C1.77 16.426.153 16.076.294 14.953c.073-.585.879-1.184 2.417-1.796z" fill="#fff"/></svg><svg fill="none" viewBox="0 0 35 35" id="whatsup" xmlns="http://www.w3.org/2000/svg"><path d="M29.381 5.601A16.946 16.946 0 0017.371.625C7.98.625.37 8.208.37 17.569c0 2.962.832 5.924 2.26 8.412L.249 34.75l9.037-2.37c2.496 1.304 5.231 2.015 8.085 2.015 9.393 0 17.003-7.583 17.003-16.944-.119-4.384-1.783-8.65-4.994-11.849zm-3.805 18.01c-.357.948-2.021 1.896-2.853 2.015a6.667 6.667 0 01-2.616-.119c-.595-.237-1.427-.474-2.378-.948-4.28-1.777-7.016-6.043-7.253-6.398-.238-.237-1.784-2.251-1.784-4.384 0-2.133 1.07-3.08 1.427-3.555.357-.474.832-.474 1.189-.474h.832c.238 0 .595-.118.951.711.357.83 1.19 2.962 1.308 3.08a.753.753 0 010 .712c-.118.237-.237.474-.475.71-.238.238-.476.593-.595.712-.238.237-.475.474-.238.83.238.473 1.07 1.776 2.379 2.961 1.664 1.422 2.972 1.896 3.448 2.133.475.237.713.119.95-.118.239-.237 1.071-1.185 1.309-1.66.238-.473.594-.355.951-.236.357.118 2.497 1.185 2.854 1.422.475.237.713.355.832.474.119.355.119 1.185-.238 2.133z" fill="#fff"/></svg></svg>