<svg width="60" height="60" viewBox="0 0 60 60" fill="none" xmlns="http://www.w3.org/2000/svg">
<rect width="60" height="60" rx="30" fill="#1C66FB"/>
<path d="M28.3087 27.8295C28.8831 26.9678 29.1703 25.9625 29.1703 24.8136C29.1703 21.7978 26.5853 19.5 23.7131 19.5H15.3836C14.9528 19.5 14.6655 19.7872 14.6655 20.2181V38.4568C14.6655 38.8876 14.9528 39.1748 15.3836 39.1748H24.5747C28.0214 39.1748 30.8937 36.4462 30.8937 32.9995C30.8937 30.8453 29.8884 28.9784 28.3087 27.8295ZM18.2558 23.2339H23.7131C24.7184 23.2339 25.4364 24.0956 25.4364 24.9573C25.4364 25.9625 24.5748 26.6806 23.7131 26.6806H18.2558V23.2339ZM24.7184 35.5845H18.2558V30.4145H24.7184C26.1545 30.4145 27.3034 31.5634 27.3034 32.9995C27.3034 34.4356 26.1545 35.5845 24.7184 35.5845Z" fill="white"/>
<path d="M46.8346 31.707C46.8346 27.3987 43.5315 23.952 39.3668 23.952C35.202 23.952 31.899 27.3987 31.899 31.707C31.899 36.0154 35.202 39.4621 39.3668 39.4621C41.8082 39.4621 44.106 38.1696 45.5421 36.0154C45.6857 35.7282 45.8293 35.4409 45.9729 35.1537C46.1165 35.0101 45.9729 34.7229 45.6857 34.7229H42.0954C41.9518 34.7229 41.9518 34.7229 41.8082 34.8665C41.0901 35.5845 40.2284 35.8718 39.3668 35.8718C37.4998 35.8718 36.0637 34.5793 35.6329 32.7123H46.1165C46.5474 32.7123 46.8346 32.4251 46.8346 31.9942V31.707ZM39.3668 27.6859C40.6593 27.6859 41.8082 28.4039 42.5262 29.5528H36.2073C36.7818 28.4039 38.0743 27.6859 39.3668 27.6859Z" fill="white"/>
<path d="M42.3826 23.0903H35.7765C35.4893 23.0903 35.202 22.8031 35.202 22.5159V20.9361C35.202 20.6489 35.4893 20.3617 35.7765 20.3617H42.3826C42.6699 20.3617 42.9571 20.6489 42.9571 20.9361V22.6595C42.9571 22.8031 42.8135 23.0903 42.3826 23.0903Z" fill="white"/>
</svg>
