<svg width="60" height="60" viewBox="0 0 60 60" fill="none" xmlns="http://www.w3.org/2000/svg">
<rect width="60" height="60" rx="30" fill="#1877F2"/>
<path d="M30.011 14.6284C35.0237 14.6284 35.6173 14.6504 37.5887 14.7384C39.4208 14.819 40.4102 15.1268 41.0697 15.3833C41.9418 15.7204 42.5721 16.1308 43.2243 16.783C43.8839 17.4426 44.2869 18.0655 44.624 18.9376C44.8805 19.5972 45.1883 20.5939 45.269 22.4187C45.3569 24.3974 45.3789 24.991 45.3789 29.9963C45.3789 35.009 45.3569 35.6026 45.269 37.574C45.1883 39.4061 44.8805 40.3955 44.624 41.0551C44.2869 41.9272 43.8765 42.5574 43.2243 43.2096C42.5647 43.8692 41.9418 44.2723 41.0697 44.6094C40.4102 44.8659 39.4135 45.1737 37.5887 45.2543C35.61 45.3422 35.0164 45.3642 30.011 45.3642C24.9983 45.3642 24.4047 45.3422 22.4333 45.2543C20.6012 45.1737 19.6118 44.8659 18.9523 44.6094C18.0802 44.2723 17.4499 43.8619 16.7977 43.2096C16.1381 42.5501 15.735 41.9272 15.3979 41.0551C15.1414 40.3955 14.8336 39.3988 14.753 37.574C14.6651 35.5953 14.6431 35.0017 14.6431 29.9963C14.6431 24.9836 14.6651 24.39 14.753 22.4187C14.8336 20.5865 15.1414 19.5972 15.3979 18.9376C15.735 18.0655 16.1454 17.4353 16.7977 16.783C17.4573 16.1235 18.0802 15.7204 18.9523 15.3833C19.6118 15.1268 20.6085 14.819 22.4333 14.7384C24.4047 14.6504 24.9983 14.6284 30.011 14.6284ZM30.011 11.25C24.9177 11.25 24.2801 11.272 22.2794 11.3599C20.2861 11.4479 18.9156 11.7703 17.7284 12.232C16.4899 12.7157 15.4419 13.3533 14.4013 14.4013C13.3533 15.4419 12.7157 16.4899 12.232 17.7211C11.7703 18.9156 11.4479 20.2787 11.3599 22.2721C11.272 24.2801 11.25 24.9177 11.25 30.011C11.25 35.1043 11.272 35.7419 11.3599 37.7426C11.4479 39.7359 11.7703 41.1064 12.232 42.2936C12.7157 43.5321 13.3533 44.5801 14.4013 45.6207C15.4419 46.6614 16.4899 47.3063 17.7211 47.7826C18.9156 48.2443 20.2787 48.5668 22.2721 48.6547C24.2728 48.7427 24.9103 48.7647 30.0037 48.7647C35.097 48.7647 35.7346 48.7427 37.7352 48.6547C39.7286 48.5668 41.099 48.2443 42.2863 47.7826C43.5174 47.3063 44.5654 46.6614 45.6061 45.6207C46.6467 44.5801 47.2916 43.5321 47.768 42.3009C48.2297 41.1064 48.5521 39.7433 48.6401 37.7499C48.728 35.7492 48.75 35.1116 48.75 30.0183C48.75 24.925 48.728 24.2874 48.6401 22.2867C48.5521 20.2934 48.2297 18.923 47.768 17.7357C47.3063 16.4899 46.6687 15.4419 45.6207 14.4013C44.5801 13.3606 43.5321 12.7157 42.3009 12.2393C41.1064 11.7777 39.7433 11.4552 37.7499 11.3673C35.7419 11.272 35.1043 11.25 30.011 11.25Z" fill="white"/>
<path d="M30.011 20.374C24.6905 20.374 20.374 24.6905 20.374 30.011C20.374 35.3315 24.6905 39.648 30.011 39.648C35.3315 39.648 39.648 35.3315 39.648 30.011C39.648 24.6905 35.3315 20.374 30.011 20.374ZM30.011 36.2622C26.5593 36.2622 23.7598 33.4627 23.7598 30.011C23.7598 26.5593 26.5593 23.7598 30.011 23.7598C33.4627 23.7598 36.2622 26.5593 36.2622 30.011C36.2622 33.4627 33.4627 36.2622 30.011 36.2622Z" fill="white"/>
<path d="M42.279 19.9928C42.279 21.2386 41.2677 22.2426 40.0292 22.2426C38.7833 22.2426 37.7793 21.2313 37.7793 19.9928C37.7793 18.7469 38.7906 17.7429 40.0292 17.7429C41.2677 17.7429 42.279 18.7543 42.279 19.9928Z" fill="white"/>
</svg>
