<svg width="60" height="60" viewBox="0 0 60 60" fill="none" xmlns="http://www.w3.org/2000/svg">
<path d="M30 60C46.5685 60 60 46.5685 60 30C60 13.4315 46.5685 0 30 0C13.4315 0 0 13.4315 0 30C0 46.5685 13.4315 60 30 60Z" fill="#1877F2"/>
<path fill-rule="evenodd" clip-rule="evenodd" d="M13.5795 29.6836C22.3252 25.8733 28.1569 23.3613 31.0749 22.1476C39.4062 18.6823 41.1374 18.0804 42.2657 18.0605C42.5139 18.0561 43.0688 18.1176 43.4282 18.4093C43.7317 18.6556 43.8152 18.9882 43.8552 19.2217C43.8952 19.4552 43.9449 19.9871 43.9054 20.4027C43.4539 25.1464 41.5003 36.6582 40.5065 41.9712C40.086 44.2193 39.2579 44.9731 38.4563 45.0469C36.7141 45.2072 35.3912 43.8956 33.7038 42.7895C31.0635 41.0587 29.5718 39.9812 27.0088 38.2923C24.0469 36.3404 25.967 35.2676 27.655 33.5144C28.0968 33.0556 35.7727 26.0737 35.9213 25.4403C35.9399 25.3611 35.9571 25.0658 35.7817 24.9099C35.6063 24.754 35.3474 24.8073 35.1606 24.8497C34.8958 24.9098 30.6777 27.6978 22.5064 33.2137C21.3091 34.0358 20.2247 34.4364 19.253 34.4154C18.1819 34.3922 16.1214 33.8097 14.5897 33.3118C12.7109 32.7011 11.2177 32.3782 11.3477 31.3411C11.4155 30.8008 12.1594 30.2484 13.5795 29.6836Z" fill="white"/>
</svg>
