<svg width="60" height="60" viewBox="0 0 60 60" fill="none" xmlns="http://www.w3.org/2000/svg">
<rect width="60" height="60" rx="30" fill="#1877F2"/>
<path d="M41.8902 18.0933C38.9268 15.1401 34.9756 13.4995 30.8049 13.4995C22.1341 13.4995 15.1098 20.4995 15.1098 29.1401C15.1098 31.8745 15.878 34.6089 17.1951 36.9058L15 44.9995L23.3415 42.812C25.6463 44.0151 28.1707 44.6714 30.8049 44.6714C39.4756 44.6714 46.5 37.6714 46.5 29.0308C46.3902 24.9839 44.8537 21.0464 41.8902 18.0933ZM38.378 34.7183C38.0488 35.5933 36.5122 36.4683 35.7439 36.5776C35.0854 36.687 34.2073 36.687 33.3293 36.4683C32.7805 36.2495 32.0122 36.0308 31.1341 35.5933C27.1829 33.9526 24.6585 30.0151 24.439 29.687C24.2195 29.4683 22.7927 27.6089 22.7927 25.6401C22.7927 23.6714 23.7805 22.7964 24.1098 22.3589C24.439 21.9214 24.878 21.9214 25.2073 21.9214C25.4268 21.9214 25.7561 21.9214 25.9756 21.9214C26.1951 21.9214 26.5244 21.812 26.8537 22.5776C27.1829 23.3433 27.9512 25.312 28.061 25.4214C28.1707 25.6401 28.1707 25.8589 28.061 26.0776C27.9512 26.2964 27.8415 26.5151 27.6219 26.7339C27.4024 26.9526 27.1829 27.2808 27.0732 27.3901C26.8537 27.6089 26.6341 27.8276 26.8537 28.1558C27.0732 28.5933 27.8415 29.7964 29.0488 30.8901C30.5854 32.2026 31.7927 32.6401 32.2317 32.8589C32.6707 33.0776 32.8902 32.9683 33.1098 32.7495C33.3293 32.5308 34.0976 31.6558 34.3171 31.2183C34.5366 30.7808 34.8659 30.8901 35.1951 30.9995C35.5244 31.1089 37.5 32.0933 37.8293 32.312C38.2683 32.5308 38.4878 32.6401 38.5976 32.7495C38.7073 33.0776 38.7073 33.8433 38.378 34.7183Z" fill="white"/>
</svg>
